<?xml version="1.0" encoding="UTF-8" standalone="no"?>
<!-- Created with Inkscape (http://www.inkscape.org/) -->

<svg
   xmlns:dc="http://purl.org/dc/elements/1.1/"
   xmlns:cc="http://creativecommons.org/ns#"
   xmlns:rdf="http://www.w3.org/1999/02/22-rdf-syntax-ns#"
   xmlns:svg="http://www.w3.org/2000/svg"
   xmlns="http://www.w3.org/2000/svg"
   xmlns:sodipodi="http://sodipodi.sourceforge.net/DTD/sodipodi-0.dtd"
   xmlns:inkscape="http://www.inkscape.org/namespaces/inkscape"
   width="210mm"
   height="297mm"
   viewBox="0 0 210 297"
   version="1.1"
   id="svg8"
   inkscape:version="0.92.3 (2405546, 2018-03-11)"
   sodipodi:docname="dibujo.svg">
  <defs
     id="defs2" />
  <sodipodi:namedview
     id="base"
     pagecolor="#ffffff"
     bordercolor="#666666"
     borderopacity="1.0"
     inkscape:pageopacity="0.0"
     inkscape:pageshadow="2"
     inkscape:zoom="1.4"
     inkscape:cx="359.02781"
     inkscape:cy="947.03642"
     inkscape:document-units="mm"
     inkscape:current-layer="layer1"
     showgrid="false"
     inkscape:window-width="1920"
     inkscape:window-height="1017"
     inkscape:window-x="-8"
     inkscape:window-y="-8"
     inkscape:window-maximized="1" />
  <metadata
     id="metadata5">
    <rdf:RDF>
      <cc:Work
         rdf:about="">
        <dc:format>image/svg+xml</dc:format>
        <dc:type
           rdf:resource="http://purl.org/dc/dcmitype/StillImage" />
        <dc:title></dc:title>
      </cc:Work>
    </rdf:RDF>
  </metadata>
  <g
     inkscape:label="Capa 1"
     inkscape:groupmode="layer"
     id="layer1">
    <path
       id="path3715"
       d="m 10.770575,21.734889 c 0.623283,-0.9423 1.18985,-1.930927 1.73593,-2.93384 0.798855,-1.441776 1.529039,-2.93043 2.242633,-4.429462 0.473001,-0.993691 0.929277,-1.998468 1.437351,-2.969437 0.236238,-0.451472 0.431948,-0.799799 0.675781,-1.240693 0.247877,-0.4294099 0.489176,-0.8637679 0.734898,-1.2947959 0.128902,-0.226111 0.237829,-0.427639 0.398994,-0.623345 0.297296,-0.171649 0.575489,-0.396852 0.891885,-0.514941 0.05333,-0.01988 0.08562,0.08527 0.11784,0.138063 0.221124,0.362361 0.333831,1.050806 0.421934,1.47324 0.231863,1.1481619 0.342545,2.3201679 0.433201,3.4921569 0.06302,1.02764 0.103891,2.05701 0.136002,3.086503 0.0068,0.504792 0.03781,1.009425 0.0329,1.514358 0,0 -0.805566,0.467931 -0.805566,0.467931 v 0 c 0.02784,-0.507564 0.0011,-1.01739 -5.36e-4,-1.525438 -0.02451,-1.030142 -0.06535,-2.059951 -0.122603,-3.088357 -0.08518,-1.166655 -0.190194,-2.334558 -0.43373,-3.4741179 -0.09117,-0.40501 -0.170186,-0.822222 -0.329815,-1.201406 -0.0288,-0.06839 -0.06044,-0.136274 -0.101537,-0.195757 -0.02055,-0.02976 -0.105515,-0.04286 -0.08008,-0.06711 0.206036,-0.196155 0.449906,-0.332774 0.674861,-0.499166 -0.0413,0.03941 -0.08767,0.07272 -0.123902,0.11827 -0.06445,0.08105 -0.269958,0.429416 -0.309448,0.495968 -0.257394,0.433814 -0.506555,0.873983 -0.763803,1.307912 -0.276664,0.4886359 -0.42162,0.7373459 -0.690608,1.2442019 -0.513781,0.968098 -0.970517,1.9736 -1.442748,2.968764 -0.712255,1.498787 -1.44069,2.987423 -2.234981,4.431328 -0.528479,0.985365 -1.079807,1.953778 -1.658842,2.900944 0,0 -0.835956,0.418219 -0.835956,0.418219 z"
       inkscape:connector-curvature="0"
       style="stroke-width:0.02311732" />
    <path
       id="path3717"
       d="m 16.347648,15.198609 c 0.728718,-0.0245 1.457779,-0.02327 2.186538,-0.0445 0.908628,-0.04858 1.819258,-0.08591 2.723228,-0.206627 0.551595,-0.08991 1.051882,-0.216386 1.556161,-0.489169 0.041,-0.02824 0.082,-0.05654 0.123005,-0.08478 0,0 -0.703755,0.653878 -0.703755,0.653878 v 0 c -0.04156,0.02491 -0.08312,0.04977 -0.12467,0.07469 -0.49296,0.243628 -1.017014,0.364209 -1.548106,0.441788 -0.904334,0.106922 -1.813417,0.148623 -2.721363,0.194665 -0.741131,0.02111 -1.483431,0.02064 -2.223216,0.08129 0,0 0.732178,-0.621262 0.732178,-0.621262 z"
       inkscape:connector-curvature="0"
       style="stroke-width:0.02311732" />
    <path
       id="path3719"
       d="m 44.549999,13.152546 c -0.01419,0.656747 -0.01389,1.313776 -0.01249,1.97067 5.36e-4,0.574655 -0.04488,1.146846 -0.08859,1.71891 -0.04076,0.610631 0.132886,2.015904 -0.94612,0.745572 -0.04328,0.01409 1.075193,1.231226 0,0 0,0 0.07661,-0.264555 0.09517,-0.326324 0.198923,-0.605931 0.508667,-1.15864 0.820956,-1.701672 0.269524,-0.420902 0.567234,-0.82296 0.966579,-1.102624 0.448194,-0.295136 0.829996,-0.645042 1.3427,-0.684522 0.03494,-0.003 0.0703,-0.0095 0.105059,-0.0047 0.04229,0.0059 0.08228,0.02444 0.123426,0.03666 0.368438,0.210954 0.571633,0.625975 0.761092,1.010923 0.225827,0.466095 0.377683,0.968829 0.506805,1.474972 0.12798,0.46955 0.180724,0.956122 0.241438,1.439665 0.01753,0.223684 0.05581,0.444385 0.09136,0.665238 l -0.913151,0.526597 v 0 c -0.03146,-0.22397 -0.0669,-0.44756 -0.08393,-0.67357 -0.05542,-0.480135 -0.104267,-0.963333 -0.228914,-1.429627 -0.124647,-0.499026 -0.277055,-0.992475 -0.497211,-1.452296 -0.144545,-0.291756 -0.326454,-0.680107 -0.597163,-0.858645 -0.03971,-0.02619 -0.08544,-0.0397 -0.128158,-0.05951 -0.03655,-0.0041 -0.07289,-0.01164 -0.1096,-0.01181 -0.405112,-0.0023 -1.118943,0.547517 0.34525,-0.381509 -0.131507,0.07874 -0.182241,0.101629 -0.303853,0.208094 -0.274261,0.240091 -0.484648,0.556651 -0.700195,0.855212 -0.312004,0.529549 -0.617571,1.072728 -0.814295,1.667016 -0.01691,0.0602 -0.03417,0.120282 -0.05074,0.180596 -0.01174,0.04274 5.36e-4,0.104682 -0.03422,0.128573 -1.151969,0.794479 -0.959935,0.866686 -0.909485,0.244581 0.05221,-0.571999 0.11224,-1.143694 0.11035,-1.719587 0.0013,-0.652274 0.0019,-1.304684 -0.0125,-1.956813 l 0.920436,-0.51013 z"
       inkscape:connector-curvature="0"
       style="stroke-width:0.02555006"
       sodipodi:nodetypes="cccccccccccccccccccccccccccccccccc" />
    <path
       id="path3721"
       d="m 28.796165,3.5941315 c 0.132139,1.2816736 0.2524,2.5646706 0.372283,3.8479536 0.19142,2.319969 0.348777,4.6435979 0.51878,6.9658009 0.106186,1.35911 0.249445,2.713711 0.413132,4.065062 0.01416,0.09459 0.02835,0.189179 0.04251,0.283768 0,0 -0.786482,0.478282 -0.786482,0.478282 v 0 c -0.01106,-0.09759 -0.02214,-0.195197 -0.0332,-0.292798 C 29.200436,17.57308 29.074295,16.204265 28.977427,14.832285 28.822398,12.510042 28.683848,10.185097 28.459,7.8701331 28.317659,6.6076591 28.193239,5.3417781 27.990512,4.0897065 c 0,0 0.805642,-0.495575 0.805642,-0.495575 z"
       inkscape:connector-curvature="0"
       style="stroke-width:0.02311732" />
    <path
       id="path3723"
       d="m 27.303353,14.359589 c 0.679392,0.04222 1.353119,-0.05584 2.021372,-0.185332 0.581568,-0.132076 1.15131,-0.329944 1.693949,-0.605358 0.262797,-0.13338 0.453829,-0.251808 0.706875,-0.401811 0.239074,-0.149039 1.230316,-0.793536 -0.01995,0.01725 0,0 0.831955,-0.370599 0.831955,-0.370599 v 0 c -0.495033,0.333511 -0.985167,0.676347 -1.493885,0.98178 -0.259632,0.149905 -0.434617,0.256334 -0.705294,0.389106 -0.546804,0.268221 -1.119751,0.45895 -1.7034,0.586436 -0.684753,0.12941 -1.373163,0.218654 -2.068464,0.20447 0,0 0.736838,-0.615929 0.736838,-0.615929 z"
       inkscape:connector-curvature="0"
       style="stroke-width:0.02311732" />
    <path
       id="path3725"
       d="m 32.306011,5.6582321 c 0.115133,1.076107 0.262641,2.146968 0.421505,3.215521 0.248642,1.4967219 0.445068,3.0034499 0.632991,4.5115099 0.198886,1.50295 0.380985,3.008871 0.580935,4.511621 0.112975,0.647492 0.126621,1.333366 0.305482,1.964679 0.0116,0.0245 0.01263,0.06226 0.03483,0.07356 0.01435,0.0073 0.01798,-0.06115 0.0036,-0.05403 -0.258702,0.128322 -0.486111,0.346491 -0.758657,0.428533 -0.06057,0.01824 0.0266,-0.1408 0.03805,-0.21162 0.02959,-0.183022 0.06895,-0.47572 0.09352,-0.653018 0.10816,-0.87352 0.200079,-1.749701 0.315996,-2.621922 0.07464,-0.524311 0.151202,-1.054706 0.312043,-1.555288 0.07721,-0.240313 0.123562,-0.326319 0.224542,-0.549541 0.379232,-0.740613 0.777848,-0.848815 1.473392,-1.283908 0.03697,0.0052 0.07567,0.0023 0.110877,0.01608 0.228965,0.09104 0.347381,0.476532 0.427729,0.706361 0.150275,0.463125 0.235189,0.946703 0.30046,1.433702 0.05539,0.491028 0.07069,0.986639 0.08273,1.481152 0.0045,0.224852 0.0027,0.116831 0.0058,0.324067 0,0 -0.807153,0.473965 -0.807153,0.473965 v 0 c 8.04e-4,-0.208656 8.04e-4,-0.09993 2.69e-4,-0.326166 -0.0049,-0.491495 -0.01549,-0.984143 -0.07233,-1.471978 -0.06356,-0.478924 -0.143053,-0.956093 -0.29386,-1.410436 -0.06035,-0.169439 -0.183225,-0.57473 -0.380804,-0.596223 -0.02987,-0.0035 -0.05954,0.0088 -0.08932,0.01315 0.224305,-0.154751 0.449457,-0.307888 0.672914,-0.464254 0.03728,-0.02608 -0.07758,0.04631 -0.114342,0.0734 -0.04303,0.03169 -0.08493,0.06565 -0.124697,0.102566 -0.153439,0.14243 -0.28125,0.312852 -0.38017,0.509381 -0.09779,0.20254 -0.160827,0.318741 -0.236723,0.5367 -0.17222,0.494565 -0.254801,1.024236 -0.331206,1.546856 -0.115306,0.869427 -0.208105,1.742895 -0.304633,2.615211 -0.05608,0.45923 -0.02824,0.227126 -0.07771,0.64648 -0.0084,0.07052 0.02092,0.16386 -0.02499,0.211556 -0.248416,0.258112 -0.662659,0.909942 -0.85911,0.598136 -0.01713,-0.02719 -0.02378,-0.06135 -0.03569,-0.09203 C 33.290438,19.714069 33.29753,19.01231 33.191984,18.351884 33.012202,16.843589 32.82704,15.336342 32.625,13.831737 32.434209,12.326015 32.238236,10.820844 31.986943,9.3265471 31.82235,8.2686551 31.679868,7.2062941 31.500352,6.1516121 c 0,0 0.80554,-0.493419 0.80554,-0.493419 z"
       inkscape:connector-curvature="0"
       style="stroke-width:0.02311732" />
    <path
       id="path3741"
       d="m 49.788343,13.405833 c 0.05421,0.07027 0.111255,0.137801 0.162644,0.210833 0.187236,0.266074 0.299814,0.462779 0.466788,0.755284 0.306615,0.537109 0.595614,1.087479 0.891592,1.632342 0.436524,0.781367 0.870133,1.579062 1.44473,2.238318 0.06922,0.06551 0.134797,0.159692 0.237719,0.152185 0.04148,-0.003 0.151876,-0.07702 0.115778,-0.05333 -0.207885,0.136496 -0.40929,0.291235 -0.631961,0.39224 -0.07649,0.03474 0.125799,-0.122212 0.183999,-0.18904 0.07644,-0.08777 0.146303,-0.182805 0.21945,-0.274209 0.506241,-0.689977 0.956501,-1.430807 1.356938,-2.206674 0.0344,-0.07975 0.07171,-0.15796 0.103286,-0.239265 0.18514,-0.476726 -0.195313,-0.23829 0.857277,-0.574847 0.0507,-0.0162 -0.05604,0.102529 -0.08213,0.155102 -0.04368,0.08805 -0.08481,0.177783 -0.127203,0.266678 -0.277885,0.572864 -0.538219,1.1573 -0.827347,1.722944 -0.220945,0.432257 -0.317023,0.59192 -0.554034,1.011162 -0.538418,0.901235 -1.181996,1.708361 -1.836486,2.497916 -0.363383,0.411476 -0.707684,0.851996 -1.116931,1.205095 0,0 -0.84023,0.381627 -0.84023,0.381627 v 0 c 0.432425,-0.335744 0.78099,-0.791303 1.156738,-1.203009 0.659211,-0.786613 1.309886,-1.588552 1.854583,-2.486846 0.229488,-0.401764 0.342634,-0.588669 0.554222,-1.003999 0.283881,-0.55723 0.534933,-1.135724 0.798826,-1.705473 0.03826,-0.08664 0.07802,-0.172416 0.114802,-0.259895 0.02272,-0.05397 0.01897,-0.133245 0.06356,-0.164317 1.032895,-0.720319 0.974722,-0.689199 0.687094,-0.01398 -0.407371,0.775177 -0.857932,1.518486 -1.351402,2.224742 -0.470892,0.627466 -0.44295,0.59623 -1.305276,1.092947 -0.04336,0.02497 -0.09781,0.01731 -0.145328,0.0063 -0.112578,-0.02613 -0.170569,-0.113774 -0.249868,-0.19819 -0.54862,-0.692866 -0.968489,-1.502056 -1.409794,-2.285628 -0.2987,-0.541477 -0.590669,-1.088678 -0.907241,-1.616766 -0.163613,-0.272928 -0.291218,-0.484057 -0.483106,-0.725142 -0.05278,-0.06633 -0.113173,-0.124117 -0.16976,-0.186173 0,0 0.768065,-0.558925 0.768065,-0.558925 z"
       inkscape:connector-curvature="0"
       style="stroke-width:0.02311732" />
    <path
       id="path3719-7"
       d="m 22.710953,14.108611 c -0.0125,0.611128 -0.01223,1.222514 -0.01098,1.833776 5.36e-4,0.534736 -0.03948,1.067178 -0.07794,1.599504 -0.03585,0.568217 0.05533,0.388095 -0.832346,0.693791 -0.03807,0.01309 0.0227,-0.08764 0.03473,-0.131229 0.01588,-0.05765 0.03266,-0.114955 0.049,-0.172432 0.175002,-0.563843 0.447497,-1.07816 0.722235,-1.583466 0.23711,-0.391667 0.499023,-0.765798 0.850344,-1.026032 0.394296,-0.274635 0.730187,-0.600234 1.181233,-0.636978 0.03075,-0.0023 0.06185,-0.0089 0.09243,-0.0041 0.03722,0.0052 0.07239,0.02275 0.108584,0.03415 0.324132,0.196295 0.502891,0.582488 0.669566,0.940698 0.198672,0.433719 0.332264,0.901527 0.445862,1.372517 0.112589,0.436929 0.158989,0.889705 0.212406,1.339656 0.01543,0.208148 0.0491,0.413523 0.08037,0.619033 0,0 -0.803344,0.490011 -0.803344,0.490011 v 0 c -0.02768,-0.208411 -0.05885,-0.416465 -0.07383,-0.626781 -0.04875,-0.446783 -0.09173,-0.896417 -0.201389,-1.330318 -0.109654,-0.464359 -0.243736,-0.923531 -0.437418,-1.351415 -0.127162,-0.271485 -0.287198,-0.632863 -0.525354,-0.798998 -0.03494,-0.02438 -0.07516,-0.0369 -0.112747,-0.05537 -0.03214,-0.0035 -0.06412,-0.01082 -0.09642,-0.01105 -0.356398,-0.0023 -0.984387,0.509487 0.303731,-0.355005 -0.115694,0.07326 -0.160323,0.09456 -0.267311,0.193635 -0.241283,0.223415 -0.426367,0.517989 -0.615993,0.795805 -0.274485,0.492765 -0.543307,0.998217 -0.716376,1.551218 -0.01488,0.05602 -0.03006,0.111933 -0.04464,0.168054 -0.01034,0.03976 5.37e-4,0.09741 -0.0301,0.119644 -1.013441,0.739287 -0.844501,0.806477 -0.800116,0.22759 0.04594,-0.532267 0.09875,-1.064255 0.09708,-1.600135 0.0014,-0.606966 0.0016,-1.21406 -0.01098,-1.82089 0,0 0.809749,-0.474691 0.809749,-0.474691 z"
       inkscape:connector-curvature="0"
       style="stroke-width:0.02311732" />
    <flowRoot
       xml:space="preserve"
       id="flowRoot3758"
       style="fill:black;fill-opacity:1;stroke:none;font-family:sans-serif;font-style:normal;font-weight:normal;font-size:40px;line-height:1.25;letter-spacing:0px;word-spacing:0px"><flowRegion
         id="flowRegion3760"><rect
           id="rect3762"
           width="436.38589"
           height="355.5737"
           x="-1935.4523"
           y="601.28094" /></flowRegion><flowPara
         id="flowPara3764"></flowPara></flowRoot>    <path
       id="path3715-5"
       d="m 3.6292958,37.122008 c 0.623282,-0.9423 1.189847,-1.930928 1.73593,-2.933839 0.798852,-1.441778 1.529039,-2.93043 2.24263,-4.429463 0.473003,-0.993692 0.929279,-1.998469 1.437354,-2.969438 0.236235,-0.451471 0.431945,-0.799793 0.67578,-1.240693 0.247875,-0.429409 0.4891742,-0.863767 0.7348972,-1.294796 0.128901,-0.22611 0.23783,-0.427638 0.398993,-0.623343 0.297297,-0.17165 0.575489,-0.396853 0.891885,-0.514943 0.05333,-0.01988 0.08562,0.08528 0.11784,0.13807 0.221124,0.362354 0.333833,1.050799 0.421934,1.473235 0.231865,1.148161 0.342544,2.320167 0.433203,3.492161 0.06302,1.027634 0.103888,2.057005 0.136002,3.086498 0.0069,0.504791 0.0378,1.009425 0.0329,1.514357 0,0 -0.80557,0.467926 -0.80557,0.467926 v 0 c 0.02784,-0.507558 0.0011,-1.017384 -5.35e-4,-1.525427 -0.02451,-1.030148 -0.06535,-2.05995 -0.122604,-3.088362 -0.08518,-1.166662 -0.190198,-2.334558 -0.433734,-3.474118 -0.09117,-0.40501 -0.170185,-0.822223 -0.329811,-1.201406 -0.0288,-0.06839 -0.06044,-0.136274 -0.101539,-0.195757 -0.02055,-0.02976 -0.105516,-0.04286 -0.08007,-0.0671 0.206035,-0.19616 0.449904,-0.332781 0.674858,-0.499172 -0.04131,0.03941 -0.08767,0.07272 -0.1239,0.118275 -0.06445,0.08104 -0.269959,0.429411 -0.309446,0.495963 -0.257396,0.433813 -0.506558,0.873982 -0.763806,1.307906 -0.276663,0.488643 -0.421619,0.737357 -0.6906092,1.244207 -0.513779,0.968098 -0.970512,1.9736 -1.442745,2.968765 -0.712253,1.498786 -1.44069,2.987423 -2.234981,4.431328 -0.52848,0.985371 -1.079806,1.953778 -1.658843,2.900944 0,0 -0.835958,0.418218 -0.835958,0.418218 z"
       inkscape:connector-curvature="0"
       style="stroke-width:0.02311732" />
    <path
       id="path3717-0"
       d="m 8.9012708,30.820557 c 0.728719,-0.0245 1.4577832,-0.02328 2.1865392,-0.04444 0.908628,-0.04859 1.819259,-0.08591 2.723229,-0.206633 0.551594,-0.08991 1.051881,-0.216387 1.556161,-0.489168 0.04101,-0.02824 0.082,-0.05654 0.123004,-0.08478 0,0 -0.703754,0.653876 -0.703754,0.653876 v 0 c -0.04156,0.02491 -0.08312,0.04976 -0.124671,0.07468 -0.49296,0.243629 -1.017013,0.364216 -1.548105,0.441789 -0.904336,0.106922 -1.813418,0.148629 -2.721364,0.194664 -0.7411302,0.02111 -1.4834332,0.02064 -2.2232162,0.08129 0,0 0.732177,-0.621262 0.732177,-0.621262 z"
       inkscape:connector-curvature="0"
       style="stroke-width:0.02311732" />
    <path
       id="path3804"
       d="m 16.623882,29.293224 c 0.13112,0.827977 0.299307,1.646434 0.484545,2.460312 0.147379,0.709156 0.33885,1.403186 0.527917,2.098438 0.216463,0.655707 0.310498,0.279886 -1.04812,0.873228 -0.03928,0.01713 0.01551,-0.09522 0.01844,-0.143438 0.0069,-0.113569 0.0073,-0.514643 0.0077,-0.59779 0.01468,-0.636979 0.07811,-1.27021 0.236693,-1.882355 0.09441,-0.36442 0.15841,-0.522386 0.280536,-0.866831 0.505723,-1.206874 0.887242,-1.255896 1.986597,-1.994557 0.130019,-0.07229 0.243445,-0.08096 0.382717,-0.06001 0,0 -1.045831,0.869796 -1.045831,0.869796 v 0 c -0.121076,0.01462 -0.230811,0.04549 -0.336363,0.120645 1.86491,-1.26017 0.96669,-0.733761 0.648344,-0.364378 -0.20672,0.239868 -0.366187,0.522362 -0.495118,0.824808 -0.132163,0.347432 -0.192522,0.4828 -0.294806,0.852376 -0.164939,0.59596 -0.230373,1.213755 -0.235072,1.837823 5.36e-4,0.01731 0.0119,0.529344 0.01406,0.592791 0.0019,0.05812 0.04997,0.141507 0.0082,0.174327 -1.174432,0.922643 -1.046197,1.173089 -1.246234,0.467546 -0.179332,-0.702659 -0.362607,-1.403607 -0.509357,-2.116651 -0.182657,-0.81202 -0.350036,-1.627869 -0.518567,-2.443788 0,0 1.133675,-0.702292 1.133675,-0.702292 z"
       inkscape:connector-curvature="0"
       style="stroke-width:0.02311732" />
    <path
       id="path3810"
       d="m 21.389738,29.58636 c 0.129696,0.769382 0.157987,1.554744 0.190564,2.335663 0.02408,0.627605 0.03703,1.255632 0.04773,1.883694 0,0 -1.133973,0.666127 -1.133973,0.666127 v 0 c 0.0016,-0.630494 -0.0024,-1.261123 -0.02415,-1.891202 -0.03154,-0.767511 -0.05723,-1.544663 -0.219517,-2.293435 0,0 1.139349,-0.700847 1.139349,-0.700847 z"
       inkscape:connector-curvature="0"
       style="stroke-width:0.02311732" />
    <path
       id="path3816"
       d="m 21.542482,27.590476 c -0.04638,0.310392 -0.123067,0.61559 -0.219539,0.910212 -0.05388,0.158212 -0.04801,0.313314 0.0068,0.468755 0,0 -1.131464,0.730364 -1.131464,0.730364 v 0 c -0.0696,-0.183817 -0.09497,-0.37806 -0.04749,-0.574262 0.09976,-0.282289 0.187913,-0.57283 0.232609,-0.874116 0,0 1.159003,-0.660953 1.159003,-0.660953 z"
       inkscape:connector-curvature="0"
       style="stroke-width:0.02311732" />
    <path
       id="path3826"
       d="m 26.684055,30.702087 c -0.576969,-0.151132 -1.170222,-0.191822 -1.759464,-0.227127 -0.528267,-0.0035 -1.042412,0.102828 -1.518374,0.368067 -0.548915,0.390276 0.333622,-0.240704 0.829744,-0.522561 0.04253,-0.02416 -0.06664,0.07876 -0.09219,0.124738 -0.09862,0.177526 -0.103465,0.366711 -0.10866,0.569648 0.02054,0.543249 0.263011,0.940529 0.541859,1.353935 0.312326,0.425148 0.682238,0.792917 1.087488,1.095771 0.341546,0.238687 0.714194,0.411179 1.08846,0.568895 0.286218,0.120323 0.590138,0.142781 0.891644,0.156347 0.132311,0.0059 0.270788,0.0029 0.400791,-0.03152 0.0326,-0.0088 0.0643,-0.0221 0.0949,-0.03772 0.02192,-0.01117 0.08266,-0.05589 0.06185,-0.04222 -0.360475,0.236945 -0.720558,0.474668 -1.080838,0.711998 0.0077,0.008 0.01549,0.01585 0.02324,0.02379 0,0 1.159658,-0.680867 1.159658,-0.680867 v 0 c 0.0079,0.03263 0.01575,0.06519 0.02364,0.09779 -0.871143,0.587611 -0.944842,0.867719 -1.727725,0.822632 -0.310183,-0.02176 -0.620592,-0.06115 -0.911302,-0.196815 -0.377842,-0.170246 -0.756188,-0.346907 -1.098511,-0.601066 -0.409557,-0.322295 -0.788193,-0.698835 -1.107344,-1.137467 -0.293663,-0.437549 -0.550329,-0.864918 -0.58851,-1.435035 -0.0048,-0.224555 -0.0085,-0.435924 0.07044,-0.647176 0.236811,-0.633318 0.943623,-0.782129 1.444074,-1.107231 0.492007,-0.228315 1.010649,-0.324372 1.54175,-0.301621 0.601752,0.04169 1.205907,0.09175 1.79706,0.234477 0,0 -1.06368,0.840297 -1.06368,0.840297 z"
       inkscape:connector-curvature="0"
       style="stroke-width:0.02311732" />
    <path
       id="path3727-8"
       d="m 30.76359,29.422991 c -0.435247,0.452055 -0.537317,0.988352 -0.64987,1.498073 -0.118234,0.70839 -0.198686,1.425001 -0.05717,2.134713 0.02316,0.116101 0.06199,0.23084 0.09298,0.346257 0.134093,0.328178 0.266153,0.728411 0.781238,0.920794 0.05936,0.02217 0.125954,0.03625 0.188931,0.05432 0.06535,0.0083 0.129323,0.02526 0.196067,0.02474 0.236909,-0.0018 0.497351,-0.128503 0.440223,-0.112138 -0.254934,0.07305 -0.474903,0.205803 -0.752926,0.233841 -0.14705,0.01486 0.218468,-0.123587 0.319648,-0.190133 0.117731,-0.07744 0.224246,-0.160919 0.33637,-0.241377 0.492004,-0.375674 0.946677,-0.771896 1.292055,-1.205124 0.191556,-0.240278 0.233328,-0.330166 0.377446,-0.57428 0.155075,-0.322045 0.325632,-0.666524 0.195661,-1.003947 -0.02076,-0.05391 -0.05633,-0.105255 -0.08449,-0.157879 -0.14096,-0.18666 -0.316931,-0.373266 -0.582263,-0.505816 -0.168147,-0.084 -0.275368,-0.107149 -0.473943,-0.167438 -0.581232,-0.161803 -1.209755,-0.225947 -1.840814,-0.262118 -0.215041,1.88e-4 -0.437426,-0.03117 -0.652471,-0.0091 -0.04496,0.0047 -0.08899,0.0138 -0.130005,0.02591 -0.03309,0.0098 -0.121993,0.04988 -0.08976,0.03906 0.330832,-0.110646 0.657424,-0.225911 0.986137,-0.33886 0,0 -1.143959,0.286335 -1.143959,0.286335 v 0 c 0.404924,-0.150763 0.764199,-0.375207 1.226886,-0.440023 0.258963,-0.03625 0.531081,0.0059 0.791186,0.0097 0.639698,0.04467 1.274177,0.119294 1.862371,0.285634 0.09439,0.02941 0.192424,0.05485 0.283177,0.08825 0.391586,0.144051 0.638959,0.386142 0.824814,0.633155 0.03127,0.05625 0.07035,0.111155 0.0938,0.168814 0.1427,0.350947 -0.02617,0.708361 -0.19275,1.043632 -0.141232,0.237984 -0.199337,0.353028 -0.382574,0.586739 -0.341596,0.435696 -0.791308,0.835162 -1.27471,1.216474 -0.08689,0.06574 -0.487459,0.381422 -0.625626,0.440952 -0.420235,0.181053 -0.866533,0.338908 -1.309883,0.498284 -0.236489,0.08502 -0.458896,0.09528 -0.71001,0.03356 -0.06646,-0.02269 -0.137111,-0.04129 -0.199382,-0.06798 -0.517998,-0.222098 -0.655311,-0.629704 -0.785621,-0.980855 -0.02958,-0.117903 -0.06676,-0.235186 -0.08873,-0.353696 -0.132484,-0.714436 -0.05802,-1.434106 0.04691,-2.147717 0.09586,-0.510487 0.185711,-1.038954 0.559252,-1.507341 0,0 1.131818,-0.303509 1.131818,-0.303509 z"
       inkscape:connector-curvature="0"
       style="stroke-width:0.02273649" />
    <path
       id="path3727-8-4"
       d="m 39.260763,13.762821 c -0.435251,0.452062 -0.537321,0.988358 -0.649875,1.498079 -0.118232,0.70839 -0.198685,1.425001 -0.05717,2.134707 0.02315,0.116101 0.06199,0.230841 0.09298,0.346258 0.134093,0.328172 0.266153,0.728411 0.781237,0.920788 0.05936,0.02217 0.125956,0.03625 0.188932,0.05438 0.06536,0.0083 0.129325,0.02526 0.196068,0.02473 0.236912,-0.0018 0.497352,-0.128502 0.440223,-0.112137 -0.254934,0.07305 -0.474903,0.205797 -0.752926,0.23384 -0.147051,0.01485 0.218468,-0.123586 0.319647,-0.190138 0.117732,-0.07744 0.224246,-0.160913 0.336372,-0.241371 0.492002,-0.375675 0.946676,-0.771902 1.292054,-1.205124 0.191558,-0.240273 0.233331,-0.330161 0.377449,-0.57428 0.155079,-0.322045 0.325635,-0.666518 0.195662,-1.003941 -0.02076,-0.05391 -0.05633,-0.105255 -0.08449,-0.157879 -0.140963,-0.18666 -0.316935,-0.373272 -0.582269,-0.505816 -0.168146,-0.084 -0.275365,-0.107149 -0.473943,-0.167439 -0.581232,-0.161802 -1.209755,-0.225946 -1.840814,-0.262116 -0.215041,1.86e-4 -0.437427,-0.03117 -0.652468,-0.0091 -0.04496,0.0047 -0.08899,0.0138 -0.130008,0.02591 -0.03309,0.0098 -0.121994,0.04988 -0.08976,0.03906 0.330832,-0.110646 0.657425,-0.225912 0.986138,-0.338867 0,0 -1.14396,0.286342 -1.14396,0.286342 v 0 c 0.404927,-0.150764 0.764202,-0.375213 1.226886,-0.440023 0.258963,-0.03625 0.531082,0.0059 0.791187,0.0097 0.639698,0.04467 1.274178,0.1193 1.862373,0.285635 0.09439,0.02941 0.192424,0.0549 0.28318,0.08826 0.391583,0.144051 0.638961,0.386136 0.824815,0.633149 0.03127,0.05625 0.07035,0.111155 0.0938,0.168814 0.142702,0.350953 -0.02614,0.708361 -0.19275,1.043638 -0.141233,0.237984 -0.199337,0.353028 -0.382571,0.586739 -0.341598,0.435691 -0.791311,0.835157 -1.274717,1.216463 -0.08689,0.06575 -0.487457,0.381422 -0.625625,0.440952 -0.420234,0.181051 -0.866531,0.338914 -1.309883,0.498289 -0.236487,0.08501 -0.458897,0.09527 -0.71001,0.03356 -0.06646,-0.02269 -0.137112,-0.04128 -0.199383,-0.06798 -0.517997,-0.222099 -0.655311,-0.629699 -0.785621,-0.980857 -0.02958,-0.117896 -0.06676,-0.235184 -0.08873,-0.353694 -0.132483,-0.714425 -0.05802,-1.434095 0.04691,-2.147712 0.09586,-0.510487 0.185709,-1.038954 0.559254,-1.507335 0,0 1.131817,-0.303515 1.131817,-0.303515 z"
       inkscape:connector-curvature="0"
       style="stroke-width:0.02273649" />
    <path
       id="path3826-3"
       d="m 39.025649,30.081434 c -0.576969,-0.151132 -1.170222,-0.191822 -1.759468,-0.227127 -0.528267,-0.0035 -1.042408,0.102828 -1.518373,0.368062 -0.548915,0.39028 0.333621,-0.2407 0.829744,-0.522562 0.04254,-0.02415 -0.06664,0.07875 -0.09219,0.124737 -0.09862,0.177532 -0.103465,0.366717 -0.108657,0.569655 0.02054,0.543248 0.263008,0.940529 0.541855,1.353935 0.312327,0.425147 0.682239,0.792917 1.087492,1.09577 0.341545,0.238688 0.714191,0.411174 1.088457,0.568895 0.286217,0.120324 0.590137,0.142782 0.891647,0.156347 0.132311,0.0059 0.270788,0.003 0.400791,-0.03151 0.0326,-0.0088 0.0643,-0.0221 0.09489,-0.03772 0.02192,-0.01117 0.08266,-0.05589 0.06185,-0.04222 -0.360471,0.236939 -0.720557,0.474661 -1.080834,0.711992 0.0077,0.008 0.01549,0.01585 0.02324,0.02379 0,0 1.159658,-0.680861 1.159658,-0.680861 v 0 c 0.0079,0.03257 0.01575,0.06518 0.02364,0.09778 -0.871143,0.587611 -0.944842,0.86772 -1.727721,0.822632 -0.310183,-0.02176 -0.620593,-0.06114 -0.911305,-0.196815 -0.377842,-0.170246 -0.756185,-0.346901 -1.09851,-0.601066 -0.409555,-0.322295 -0.788195,-0.698829 -1.107343,-1.137467 -0.293665,-0.437549 -0.550332,-0.864918 -0.588514,-1.435029 -0.0048,-0.224554 -0.0085,-0.435923 0.07044,-0.647182 0.236809,-0.633318 0.943623,-0.782128 1.444074,-1.107231 0.492006,-0.228309 1.010649,-0.324372 1.541749,-0.301621 0.601749,0.04169 1.205907,0.09175 1.79706,0.234478 0,0 -1.063679,0.840296 -1.063679,0.840296 z"
       inkscape:connector-curvature="0"
       style="stroke-width:0.02311732" />
    <path
       id="path3890-1"
       d="m 46.784541,31.056256 c 0.647057,0.01521 1.294284,0.01444 1.941432,0.01444 0.486627,-0.02585 0.979686,0.05098 1.463236,-0.0435 0.269642,-0.05274 0.298866,-0.08236 0.544323,-0.195003 0.663723,-0.457897 -0.441927,0.307035 -0.628305,0.407806 -0.06067,0.03281 0.09603,-0.112044 0.138608,-0.174018 0.108258,-0.157564 0.167519,-0.324045 0.214824,-0.517708 0.04416,-0.453343 -0.163072,-0.594365 -0.478401,-0.735633 -0.724822,-0.243125 -1.368674,-0.05303 -2.068497,0.20651 0.246186,-0.255837 -1.087118,0.634471 -0.825327,0.452028 0.212816,-0.148314 0.413143,-0.33916 0.648611,-0.422575 0.115349,-0.04088 -0.187906,0.183484 -0.271154,0.288861 -0.19231,0.243447 -0.221164,0.350094 -0.350935,0.637142 -0.241947,0.701778 -0.151394,1.13838 0.169268,1.758431 0.284058,0.449361 0.720369,0.632278 1.15603,0.764646 0.440068,0.110236 0.885236,0.172 1.333321,0.203288 0.165558,0.01345 0.329284,0.01713 0.494409,0 0,0 -0.963957,0.86044 -0.963957,0.86044 v 0 c -0.165011,0.0018 -0.32953,-0.0052 -0.494177,-0.02012 -0.451547,-0.03912 -0.900853,-0.106856 -1.342834,-0.22929 -0.460141,-0.155793 -0.914201,-0.36705 -1.203983,-0.856336 -0.247716,-0.490332 -0.419572,-0.957754 -0.312243,-1.550774 0.02144,-0.11847 0.06361,-0.229934 0.09542,-0.344901 0.122034,-0.298773 0.155904,-0.428205 0.341693,-0.686217 0.416058,-0.5778 1.110382,-0.938763 1.601451,-1.278998 0.130441,-0.09037 0.267585,-0.166264 0.405754,-0.237611 0.141222,-0.07293 0.287675,-0.129825 0.431513,-0.194735 0.744533,-0.258269 1.379066,-0.428445 2.141161,-0.153243 0.06639,0.03456 0.135832,0.06153 0.19916,0.103747 0.249744,0.166499 0.392478,0.462856 0.370447,0.808237 -0.0112,0.06319 -0.01758,0.127941 -0.0336,0.189576 -0.230865,0.888565 -1.066942,1.218808 -1.697819,1.601528 -0.250993,0.09452 -0.283287,0.120791 -0.55473,0.161113 -0.484698,0.072 -0.975827,0.0035 -1.462143,0.02713 -0.658043,0 -1.316161,-4.79e-4 -1.974111,0.01444 0,0 0.971544,-0.858791 0.971544,-0.858791 z"
       inkscape:connector-curvature="0"
       style="stroke-width:0.0220918" />
    <path
       id="path3725-3"
       d="m 40.258818,20.822135 c 0.115133,1.076106 0.262642,2.146969 0.421505,3.215521 0.248643,1.496723 0.445069,3.00345 0.632991,4.51151 0.198888,1.502945 0.380982,3.008871 0.580933,4.511616 0.112974,0.647492 0.126621,1.333371 0.305482,1.964683 0.0116,0.0245 0.01263,0.06226 0.03483,0.07357 0.01435,0.0073 0.01799,-0.06115 0.0036,-0.05403 -0.258701,0.128322 -0.48611,0.346491 -0.758656,0.428533 -0.06057,0.01825 0.0266,-0.1408 0.03805,-0.21162 0.02959,-0.183018 0.06895,-0.475721 0.09353,-0.653018 0.108155,-0.873521 0.200075,-1.749706 0.315991,-2.621922 0.07464,-0.524311 0.151207,-1.054707 0.312047,-1.555288 0.07721,-0.24032 0.123562,-0.326313 0.224542,-0.549541 0.379232,-0.740614 0.777849,-0.848816 1.473393,-1.283909 0.03696,0.0052 0.07567,0.0023 0.110876,0.01608 0.22897,0.09104 0.347386,0.476538 0.427732,0.706361 0.150277,0.463124 0.235191,0.946703 0.300462,1.433696 0.05539,0.491028 0.07069,0.986645 0.08273,1.481157 0.0045,0.224853 0.0027,0.116826 0.0058,0.324068 0,0 -0.807158,0.473965 -0.807158,0.473965 v 0 c 8.05e-4,-0.208655 8.05e-4,-0.09993 2.7e-4,-0.326172 -0.0049,-0.491489 -0.01549,-0.984137 -0.07233,-1.471972 -0.06356,-0.478923 -0.143054,-0.956099 -0.293862,-1.410442 -0.06035,-0.169433 -0.183226,-0.574729 -0.380806,-0.596217 -0.02987,-0.0035 -0.05954,0.0088 -0.08931,0.01309 0.224302,-0.154745 0.449457,-0.307883 0.672917,-0.464248 0.03728,-0.02608 -0.07758,0.04631 -0.114342,0.0734 -0.04304,0.03169 -0.08493,0.06565 -0.1247,0.10256 -0.153439,0.142442 -0.281252,0.312858 -0.380173,0.509387 -0.09778,0.20254 -0.160824,0.318741 -0.236724,0.5367 -0.172216,0.494565 -0.2548,1.024236 -0.331205,1.546856 -0.115306,0.869427 -0.208104,1.742889 -0.30463,2.61521 -0.05609,0.45923 -0.02824,0.227121 -0.07771,0.64648 -0.0084,0.07051 0.02092,0.163861 -0.02499,0.211556 -0.248416,0.258107 -0.662656,0.909937 -0.859107,0.598137 -0.01713,-0.02719 -0.02381,-0.06135 -0.03569,-0.09203 -0.161843,-0.647941 -0.154751,-1.3497 -0.260297,-2.010121 -0.179782,-1.508294 -0.364945,-3.015541 -0.566984,-4.520146 -0.190791,-1.505721 -0.386765,-3.010899 -0.638056,-4.50519 -0.164595,-1.057892 -0.307078,-2.120253 -0.486592,-3.174935 0,0 0.805537,-0.49342 0.805537,-0.49342 z"
       inkscape:connector-curvature="0"
       style="stroke-width:0.02311732" />
    <path
       id="path3995"
       d="m 56.457229,29.799285 c -0.305731,-0.221415 -0.663101,-0.380791 -1.027563,-0.486964 -0.105226,-0.03064 -0.212697,-0.05344 -0.319048,-0.08017 -0.539902,-0.09593 -1.111213,-0.206416 -1.656758,-0.07801 -0.105161,0.02474 -0.205478,0.06603 -0.308217,0.09905 -0.09634,0.04947 -0.388625,0.191273 -0.289037,0.148343 0.162391,-0.07 0.300274,-0.236647 0.477719,-0.229678 0.111164,0.0041 -0.158006,0.153494 -0.225558,0.239582 -0.234455,0.298796 -0.31684,0.591757 -0.41765,0.946277 -0.118913,0.674904 -0.01308,1.362033 0.279536,1.983996 0.05599,0.119055 0.126748,0.230993 0.190124,0.346492 0.221861,0.359606 0.497651,0.688913 0.841881,0.944242 0.141255,0.104781 0.234557,0.149225 0.386428,0.231939 0.194363,0.07902 0.416004,0.192495 0.63509,0.151775 0.111286,-0.0207 0.160907,-0.06209 0.254776,-0.118499 -0.207825,0.105746 -0.403277,0.238751 -0.623466,0.317238 -0.06079,0.02169 0.0893,-0.09155 0.129331,-0.141098 0.19065,-0.235951 0.297125,-0.507207 0.396868,-0.787631 0.134497,-0.415657 0.168565,-0.850465 0.187606,-1.283096 0.0201,-0.314267 -0.01527,-0.626279 -0.06481,-0.936115 -0.02952,-0.155376 -0.03816,-0.313366 -0.06934,-0.468346 -0.02572,-0.118826 -0.04373,-0.239242 -0.04079,-0.360776 0.04491,-0.451852 0.414622,-0.42931 0.891785,-0.678623 0.1467,0.168926 0.196867,0.400707 0.256481,0.609796 0.08995,0.323887 0.146068,0.655339 0.213003,0.984166 0.0746,0.334347 0.132675,0.671869 0.220386,1.003292 0.07523,0.263164 0.117681,0.532959 0.166026,0.801524 0.03741,0.214743 0.08925,0.423978 0.159781,0.630564 0.05717,0.142905 0.128323,0.276653 0.213067,0.405256 l -0.771372,0.438034 v 0 c -0.08768,-0.135403 -0.158415,-0.277009 -0.217917,-0.426667 -0.07364,-0.210428 -0.127541,-0.423358 -0.165965,-0.642563 -0.04571,-0.267409 -0.08251,-0.536671 -0.155891,-0.798764 -0.08788,-0.333042 -0.149369,-0.671576 -0.220591,-1.008234 -0.06923,-0.325798 -0.123731,-0.655051 -0.215264,-0.975926 -0.02358,-0.08171 -0.124025,-0.473205 -0.205693,-0.504405 0.248577,-0.140134 0.498647,-0.277777 0.745734,-0.420401 0.01158,-0.0067 -0.02744,0.0041 -0.03826,0.01205 -0.05144,0.0366 -0.06345,0.127374 -0.07625,0.181682 -0.01592,0.113564 0.009,0.228349 0.02905,0.340288 0.03232,0.157365 0.04052,0.316952 0.0644,0.475737 0.04507,0.316619 0.08459,0.634967 0.06258,0.95541 -0.01919,0.439823 -0.05198,0.881764 -0.180548,1.30638 -0.09625,0.286482 -0.197953,0.56604 -0.378394,0.814487 -0.03784,0.0521 -0.0689,0.112838 -0.12222,0.14991 -0.282209,0.196201 -0.584671,0.363184 -0.877004,0.544779 -0.04443,0.01912 -0.08681,0.0435 -0.133238,0.05736 -0.276583,0.08265 -0.557608,-0.04964 -0.8006,-0.166025 -0.158709,-0.09268 -0.240773,-0.133871 -0.38855,-0.249779 -0.344188,-0.269981 -0.620315,-0.609264 -0.842722,-0.979406 -0.06399,-0.118739 -0.134927,-0.234174 -0.191995,-0.356221 -0.297221,-0.635635 -0.416026,-1.334751 -0.310801,-2.02691 0.0947,-0.365307 0.171271,-0.663478 0.396777,-0.978792 0.356379,-0.498307 0.9547,-0.740286 1.50383,-0.993457 0.105697,-0.02959 0.209337,-0.06728 0.317081,-0.08872 0.555133,-0.110477 1.129488,0.0047 1.675295,0.105541 0.495577,0.127808 0.221025,0.744596 0.640921,1.040071 z"
       inkscape:connector-curvature="0"
       style="stroke-width:0.01467688"
       sodipodi:nodetypes="cccccccccccccccccccccccccccccccccccccccccccccccccsccccccccc" />
  </g>
</svg>
